<svg xmlns="http://www.w3.org/2000/svg" viewBox="0 0 56.88 71.76"><defs><linearGradient id="linear-gradient" x1="28.44" y1=".12" x2="28.44" y2=".12" gradientUnits="userSpaceOnUse"><stop offset="0" stop-color="#0052cc"/><stop offset="1" stop-color="#2684ff"/></linearGradient><linearGradient id="New_Gradient_Swatch_1" x1="42.66" y1="50.35" x2="42.66" y2="20.14" gradientUnits="userSpaceOnUse"><stop offset=".18" stop-color="#0052cc"/><stop offset="1" stop-color="#2684ff"/></linearGradient></defs><g id="Layer_2" data-name="Layer 2"><g id="Blue"><path style="fill:url(#linear-gradient)" d="M28.44.12z"/><path d="M56.88 28.44A28.44 28.44 0 0 0 28.44 0a28.43 28.43 0 0 0-8.79 55.48v14.25a2 2 0 0 0 2 2h13.5a2 2 0 0 0 2-2V55.49a28.45 28.45 0 0 0 19.73-27.05Zm-28.44 9.61a9.61 9.61 0 1 1 0-19.23 9.61 9.61 0 0 1 0 19.23Z" style="fill:#2684ff"/><path d="M28.44 0v18.83a9.61 9.61 0 0 1 0 19.23 8.79 8.79 0 0 1 8.79 8.79v8.65A28.44 28.44 0 0 0 28.44 0Z" style="fill:url(#New_Gradient_Swatch_1)"/></g></g></svg>