<svg xmlns="http://www.w3.org/2000/svg" width="539.98" height="67"><defs><linearGradient id="linear-gradient" x1="28.54" y1="35.57" x2="11.4" y2="65.24" gradientUnits="userSpaceOnUse"><stop offset="0" stop-color="#344563"/><stop offset=".92" stop-color="#7a869a"/></linearGradient><style>.cls-2{fill:#7a869a}</style></defs><g id="Layer_2" data-name="Layer 2"><g id="Logos"><path d="M19.64 30.56a1.88 1.88 0 0 0-3.2.35L.21 63.36a1.94 1.94 0 0 0 1.73 2.81h22.6a1.88 1.88 0 0 0 1.74-1.07c4.87-10.1 1.92-25.4-6.64-34.54Z" style="fill:url(#linear-gradient)"/><path class="cls-2" d="M31.55 1a42.79 42.79 0 0 0-2.5 42.26L39.94 65.1a2 2 0 0 0 1.74 1.07h22.6A1.94 1.94 0 0 0 66 63.36L34.85 1a1.83 1.83 0 0 0-3.3 0ZM296.63 27.06c0 8 3.73 14.42 18.31 17.24 8.7 1.82 10.52 3.23 10.52 6.13s-1.82 4.64-7.95 4.64a44.81 44.81 0 0 1-21.13-5.72v13.09c4.39 2.16 10.19 4.56 21 4.56 15.25 0 21.3-6.79 21.3-16.9m0 0c0-9.53-5.06-14-19.31-17.07-7.87-1.74-9.77-3.48-9.77-6 0-3.15 2.81-4.47 8-4.47 6.3 0 12.51 1.9 18.4 4.56V14.63a41.64 41.64 0 0 0-18-3.73c-14.09 0-21.38 6.14-21.38 16.16M492.5 11.73v54.44h11.6V24.66l4.89 11.02 16.4 30.49h14.59V11.73h-11.6v35.14l-4.4-10.2-13.17-24.94H492.5zM406.04 11.73h12.68v54.44h-12.68zM391.41 50.1c0-9.53-5.05-14-19.3-17.07-7.87-1.74-9.78-3.48-9.78-6 0-3.15 2.82-4.47 8-4.47 6.29 0 12.51 1.9 18.39 4.56V14.63a41.57 41.57 0 0 0-18-3.73c-14.02 0-21.32 6.1-21.32 16.16 0 8 3.73 14.42 18.32 17.24 8.7 1.82 10.52 3.23 10.52 6.13s-1.82 4.64-8 4.64a44.8 44.8 0 0 1-21.12-5.72v13.09c4.39 2.16 10.19 4.56 21 4.56 15.24 0 21.29-6.79 21.29-16.9M198.15 11.73v54.44h26.06l4.1-11.76h-17.4V11.73h-12.76zM146.67 11.73V23.5h14.08v42.67h12.76V23.5h15.08V11.73h-41.92zM128.16 11.73h-16.72l-19 54.44H107l2.65-9.17A36 36 0 0 0 130 57l2.7 9.17h14.5Zm-8.36 35.46a24.67 24.67 0 0 1-7-1l7-23.77 7 23.77a24.69 24.69 0 0 1-7 1ZM269.13 11.73H252.4l-19 54.44h14.5l2.71-9.17a36 36 0 0 0 20.31 0l2.69 9.17h14.5Zm-8.36 35.46a24.69 24.69 0 0 1-7-1l7-23.77 7 23.77a24.67 24.67 0 0 1-7 1ZM464.4 11.73h-16.72l-19 54.44h14.5l2.71-9.17a36 36 0 0 0 20.3 0l2.69 9.17h14.5ZM456 47.19a24.79 24.79 0 0 1-7-1l7-23.77 7 23.77a24.79 24.79 0 0 1-7 1Z"/></g></g></svg>