<svg version="1.1" id="Layer_1" xmlns="http://www.w3.org/2000/svg" x="0" y="0" width="14" height="11.4" viewBox="-298 391.6 14 11.4" style="enable-background:new -298 391.6 14 11.4" xml:space="preserve"><path d="M-284.2 393.1c-.5.2-1 .4-1.6.4.6-.3 1-.9 1.2-1.5-.5.3-1.1.6-1.8.7-.5-.5-1.2-.9-2-.9-1.5 0-2.7 1.2-2.7 2.8 0 .2 0 .4.1.6-2.4-.1-4.4-1.2-5.8-2.9-.2.4-.4.9-.4 1.4 0 1 .5 1.8 1.2 2.3-.5 0-.9-.1-1.3-.3 0 1.4 1 2.5 2.2 2.7-.1.1-.4.2-.6.2-.2 0-.4 0-.5-.1.3 1.1 1.4 1.9 2.6 1.9-1 .8-2.2 1.2-3.5 1.2h-.7c1.2.8 2.7 1.3 4.3 1.3 5.1 0 7.9-4.3 7.9-7.9v-.4c.6-.4 1.1-.9 1.4-1.5z" style="fill:#60a9dc"/></svg>